<svg id="Capa_1" enable-background="new 0 0 512 512" height="512" viewBox="0 0 512 512" width="512" xmlns="http://www.w3.org/2000/svg"><g><path d="m256 512c29.226 0 53.247-22.269 56.031-50.764h-112.062c2.784 28.495 26.805 50.764 56.031 50.764z"/><path d="m451.914 347.859c-17.175 0-31.097-13.923-31.097-31.097v-102.855c0-72.94-47.385-134.804-113.049-156.511.181-1.761.274-3.546.274-5.354 0-28.696-23.346-52.042-52.042-52.042s-52.042 23.346-52.042 52.042c0 1.808.094 3.593.274 5.354-65.663 21.707-113.048 83.571-113.048 156.511v102.855c0 17.174-13.923 31.097-31.097 31.097-23.024 0-41.688 18.664-41.688 41.688s18.665 41.689 41.688 41.689h391.827c23.024 0 41.688-18.665 41.688-41.689s-18.665-41.688-41.688-41.688zm-195.914-317.859c11.654 0 21.218 9.092 21.986 20.554-7.193-.959-14.53-1.463-21.986-1.463-7.456 0-14.793.504-21.986 1.463.768-11.462 10.332-20.554 21.986-20.554z"/></g></svg>